<?xml version="1.0" standalone="no"?><!DOCTYPE svg PUBLIC "-//W3C//DTD SVG 1.1//EN" "http://www.w3.org/Graphics/SVG/1.1/DTD/svg11.dtd"><svg t="1567076532073" class="icon" viewBox="0 0 1024 1024" version="1.1" xmlns="http://www.w3.org/2000/svg" p-id="3603" xmlns:xlink="http://www.w3.org/1999/xlink" width="200" height="200"><defs><style type="text/css"></style></defs><path d="M895.04 256c-7.68-59.52-58.24-106.24-119.68-136.96C706.24 84.48 613.12 64 512 64s-194.24 20.48-263.36 55.04C187.2 149.76 136.64 196.48 128.96 256H128v496c0 67.2 53.76 119.68 120.64 152.96C317.76 939.52 410.88 960 512 960s194.24-20.48 263.36-55.04C842.24 871.68 896 819.2 896 752V256h-0.96zM832 752c0 30.08-24.96 65.6-85.44 95.68C688.32 877.12 605.44 896 512 896s-176.32-18.88-234.56-48.32C216.96 817.6 192 782.08 192 752v-106.88c16.96 13.76 36.16 25.6 56.64 35.84C317.76 715.52 410.88 736 512 736s194.24-20.48 263.36-55.04c20.48-10.24 39.68-22.08 56.64-35.84v106.88z m0-224c0 30.08-24.96 65.6-85.44 95.68C688.32 653.12 605.44 672 512 672s-176.32-18.88-234.56-48.32C216.96 593.6 192 558.08 192 528v-138.88c16.96 13.76 36.16 25.6 56.64 35.84C317.76 459.52 410.88 480 512 480s194.24-20.48 263.36-55.04c20.48-10.24 39.68-22.08 56.64-35.84v138.88z m-85.44-160.32C688.32 397.12 605.44 416 512 416s-176.32-18.88-234.56-48.32C216.96 337.6 192 302.08 192 272s24.96-65.6 85.44-95.68C335.68 146.88 418.56 128 512 128s176.32 18.88 234.56 48.32C807.04 206.4 832 241.92 832 272s-24.96 65.6-85.44 95.68z" p-id="3604"></path></svg>