<?xml version="1.0" standalone="no"?><!DOCTYPE svg PUBLIC "-//W3C//DTD SVG 1.1//EN" "http://www.w3.org/Graphics/SVG/1.1/DTD/svg11.dtd"><svg t="1565156303352" class="icon" viewBox="0 0 1024 1024" version="1.1" xmlns="http://www.w3.org/2000/svg" p-id="25697" xmlns:xlink="http://www.w3.org/1999/xlink" width="200" height="200"><defs><style type="text/css"></style></defs><path d="M544.149333 818.709333v63.509334h266.666667v64h-597.333333v-64h266.666666v-63.509334H101.312a25.685333 25.685333 0 0 1-25.685333-25.664V204.373333c0-14.186667 11.52-25.685333 25.685333-25.685333h821.674667c14.165333 0 25.664 11.52 25.664 25.685333v588.650667c0 14.165333-11.498667 25.664-25.664 25.664H544.149333z m4.117334-247.936l43.2 43.904 192.085333-188.906666-44.864-45.653334-146.474667 144.064-157.653333-157.653333-44.117333 44.117333-0.042667-0.042666-158.976 158.976 45.248 45.248 157.845333-157.824 113.749334 113.770666z" p-id="25698"></path></svg>