<?xml version="1.0" standalone="no"?><!DOCTYPE svg PUBLIC "-//W3C//DTD SVG 1.1//EN" "http://www.w3.org/Graphics/SVG/1.1/DTD/svg11.dtd"><svg t="1567077109539" class="icon" viewBox="0 0 1024 1024" version="1.1" xmlns="http://www.w3.org/2000/svg" p-id="1377" xmlns:xlink="http://www.w3.org/1999/xlink" width="200" height="200"><defs><style type="text/css"></style></defs><path d="M347.937391 546.771478H91.536696A91.625739 91.625739 0 0 0 0 638.352696v256.26713c0 50.532174 41.093565 91.536696 91.536696 91.536696H348.16c24.442435 0 47.37113-9.48313 64.645565-26.757565 17.318957-17.318957 26.802087-40.336696 26.713044-64.779131v-256.26713c0-50.576696-41.004522-91.581217-91.581218-91.581218z m16.606609 348.16a17.051826 17.051826 0 0 1-4.808348 11.798261 16.384 16.384 0 0 1-11.486609 4.719304H91.536696a16.695652 16.695652 0 0 1-16.606609-16.606608v-256.489739c0-9.171478 7.479652-16.65113 16.606609-16.651131h256.26713c9.171478 0 16.65113 7.479652 16.651131 16.651131V894.886957h0.089043zM347.937391 0H91.536696A91.714783 91.714783 0 0 0 0 91.536696v256.26713C0 398.380522 41.093565 439.429565 91.536696 439.429565H348.16c24.442435 0 47.37113-9.48313 64.645565-26.802087 17.318957-17.274435 26.802087-40.292174 26.713044-64.77913V91.536696C439.474087 41.093565 398.469565 0 347.89287 0z m16.606609 348.16a17.051826 17.051826 0 0 1-4.808348 11.753739 16.384 16.384 0 0 1-11.486609 4.763826H91.536696a16.695652 16.695652 0 0 1-16.606609-16.65113v-256.445218c0-9.171478 7.479652-16.65113 16.606609-16.65113h256.26713c9.171478 0 16.65113 7.479652 16.651131 16.606609V348.16h0.089043z m530.16487 198.611478h-256.356174a91.625739 91.625739 0 0 0-91.581218 91.581218v256.26713c0 50.532174 41.093565 91.536696 91.581218 91.536696h256.445217c24.486957 0 47.415652-9.48313 64.690087-26.757565 17.318957-17.318957 26.757565-40.336696 26.668522-64.779131v-256.26713a91.447652 91.447652 0 0 0-91.447652-91.581218z m16.517565 348.16a17.051826 17.051826 0 0 1-4.85287 11.798261 16.384 16.384 0 0 1-11.442087 4.719304h-256.578782a16.695652 16.695652 0 0 1-16.651131-16.606608v-256.489739c0-9.171478 7.479652-16.65113 16.651131-16.651131h256.26713c9.126957 0 16.606609 7.479652 16.606609 16.651131V894.886957zM894.753391 0h-256.445217a91.625739 91.625739 0 0 0-91.536696 91.536696v256.26713c0 50.576696 41.093565 91.581217 91.581218 91.581217h256.445217c24.486957 0 47.415652-9.48313 64.690087-26.802086 17.318957-17.274435 26.757565-40.292174 26.668522-64.779131V91.536696A91.536696 91.536696 0 0 0 894.70887 0z m16.473044 348.16a17.051826 17.051826 0 0 1-4.85287 11.753739 16.384 16.384 0 0 1-11.442087 4.763826h-256.578782a16.695652 16.695652 0 0 1-16.651131-16.65113v-256.445218c0-9.171478 7.479652-16.65113 16.651131-16.65113h256.26713c9.126957 0 16.606609 7.479652 16.606609 16.606609V348.16z" p-id="1378"></path></svg>