<?xml version="1.0" standalone="no"?><!DOCTYPE svg PUBLIC "-//W3C//DTD SVG 1.1//EN" "http://www.w3.org/Graphics/SVG/1.1/DTD/svg11.dtd"><svg t="1567076724423" class="icon" viewBox="0 0 1024 1024" version="1.1" xmlns="http://www.w3.org/2000/svg" p-id="3961" xmlns:xlink="http://www.w3.org/1999/xlink" width="200" height="200"><defs><style type="text/css"></style></defs><path d="M864 64H160C106.88 64 64 106.88 64 160v512c0 53.12 42.88 96 96 96h192v128h-32c-17.6 0-32 14.4-32 32s14.4 32 32 32h384c17.6 0 32-14.4 32-32s-14.4-32-32-32h-32v-128h192c53.12 0 96-42.88 96-96V160c0-53.12-42.88-96-96-96z m-256 832h-192v-128h192v128z m288-224c0 17.6-14.4 32-32 32H160c-17.6 0-32-14.4-32-32v-64h768v64z m0-128H128V160c0-17.6 14.4-32 32-32h704c17.6 0 32 14.4 32 32v384z" p-id="3962"></path></svg>