<?xml version="1.0" standalone="no"?><!DOCTYPE svg PUBLIC "-//W3C//DTD SVG 1.1//EN" "http://www.w3.org/Graphics/SVG/1.1/DTD/svg11.dtd"><svg t="1565156742124" class="icon" viewBox="0 0 1024 1024" version="1.1" xmlns="http://www.w3.org/2000/svg" p-id="35379" xmlns:xlink="http://www.w3.org/1999/xlink" width="200" height="200"><defs><style type="text/css"></style></defs><path d="M680.912 486.78h100.05l202.156-174.107c-8.83-20.77-18.725-40.744-29.957-59.955L685.06 483.152l-4.148 3.628zM536.209 0.19v82l82.306-71.02C591.718 5.551 564.328 1.518 536.21 0.19z m423.314 486.59l58.36-50.235c-3.544-24.531-9.307-48.333-16.283-71.592L859.94 486.789h99.584v-0.01zM792.428 83.69l-256.22 220.223v86.11l309.198-266.456c-16.787-14.453-34.516-27.712-52.978-39.877zM678.687 27.438L536.209 150.017v86.122L744.975 56.151c-21.341-10.891-43.281-20.79-66.288-28.713zM924.45 209.233c-12.783-17.401-26.563-33.99-41.403-49.588l-346.84 298.191v28.944h66.064l322.18-277.547zM487.79 0.19C216.343 12.91 0.021 236.416 0.021 510.94c0 118.859 40.82 227.952 108.766 314.802L487.79 499.855V0.19z m33.103 534.939L140.319 862.392c93.391 98.702 225.138 160.585 371.7 160.585 274.553 0 498.045-216.358 510.79-487.848H520.891z m0 0" p-id="35380"></path></svg>