<?xml version="1.0" standalone="no"?><!DOCTYPE svg PUBLIC "-//W3C//DTD SVG 1.1//EN" "http://www.w3.org/Graphics/SVG/1.1/DTD/svg11.dtd"><svg t="1567076932354" class="icon" viewBox="0 0 1122 1024" version="1.1" xmlns="http://www.w3.org/2000/svg" p-id="1473" xmlns:xlink="http://www.w3.org/1999/xlink" width="219.140625" height="200"><defs><style type="text/css"></style></defs><path d="M572.8 688.896c-18.510769 0-34.599385 6.596923-48.029538 19.672615-13.410462 13.075692-20.066462 28.750769-20.066462 46.769231 0 18.156308 6.754462 33.595077 20.086154 46.473846 10.299077 9.708308 22.173538 15.753846 35.367384 18.018462a243.593846 243.593846 0 0 0 25.265231 0 66.441846 66.441846 0 0 0 35.387077-18.038154c13.410462-12.740923 20.066462-28.199385 20.066462-46.454154 0-18.038154-6.774154-33.693538-20.086154-46.769231-13.390769-13.075692-29.479385-19.672615-47.990154-19.672615z m-1.575385-393.019077c-22.980923 0-41.826462 7.876923-56.713846 23.492923-14.769231 15.497846-22.055385 34.737231-22.055384 57.619692 0 19.987692 33.339077 166.715077 42.338461 273.447385h74.003692C619.076923 543.704615 649.856 396.996923 649.856 376.989538c0-23.236923-7.305846-42.496-22.055385-57.993846-14.769231-15.36-33.614769-23.118769-56.576-23.118769z" p-id="1474"></path><path d="M152.900923 1005.961846c-63.350154 0-111.950769-23.433846-136.743385-66.205538-24.792615-42.633846-20.913231-96.236308 10.771693-150.980923l408.339692-704C466.953846 30.030769 511.675077 0 561.240615 0c49.467077 0 94.286769 30.168615 125.971693 84.775385l408.339692 704c31.684923 54.744615 35.564308 108.347077 10.771692 150.980923-24.812308 42.633846-73.255385 66.067692-136.62523 66.067692l-816.797539 0.137846zM563.012923 72.231385c-18.904615 0-47.281231 16.068923-63.566769 44.248615L84.804923 838.065231c-16.285538 28.179692-20.283077 53.740308-10.771692 70.065231 9.511385 16.344615 33.673846 25.698462 66.244923 25.698461h833.240615c32.689231 0 61.262769-9.353846 70.656-25.698461 9.511385-16.344615 5.513846-41.885538-10.771692-70.065231L623.015385 116.48c-16.384-28.16-41.078154-44.248615-59.98277-44.248615z" p-id="1475"></path></svg>