<?xml version="1.0" standalone="no"?><!DOCTYPE svg PUBLIC "-//W3C//DTD SVG 1.1//EN" "http://www.w3.org/Graphics/SVG/1.1/DTD/svg11.dtd"><svg t="1567076647724" class="icon" viewBox="0 0 1024 1024" version="1.1" xmlns="http://www.w3.org/2000/svg" p-id="3842" xmlns:xlink="http://www.w3.org/1999/xlink" width="200" height="200"><defs><style type="text/css"></style></defs><path d="M160 128C106.88 128 64 170.88 64 224s42.88 96 96 96 96-42.88 96-96-42.88-96-96-96zM128 224c0-17.6 14.4-32 32-32s32 14.4 32 32-14.4 32-32 32-32-14.4-32-32zM160 416c-53.12 0-96 42.88-96 96s42.88 96 96 96 96-42.88 96-96-42.88-96-96-96z m-32 96c0-17.6 14.4-32 32-32s32 14.4 32 32-14.4 32-32 32-32-14.4-32-32zM64 800c0-53.12 42.88-96 96-96s96 42.88 96 96-42.88 96-96 96-96-42.88-96-96z m96-32c-17.6 0-32 14.4-32 32s14.4 32 32 32 32-14.4 32-32-14.4-32-32-32z" p-id="3843"></path><path d="M928 832c17.6 0 32-14.4 32-32s-14.4-32-32-32H384c-17.6 0-32 14.4-32 32s14.4 32 32 32h544zM960 512c0 17.6-14.4 32-32 32H384c-17.6 0-32-14.4-32-32s14.4-32 32-32h544c17.6 0 32 14.4 32 32zM928 256c17.6 0 32-14.4 32-32s-14.4-32-32-32H384c-17.6 0-32 14.4-32 32s14.4 32 32 32h544z" p-id="3844"></path></svg>