<?xml version="1.0" standalone="no"?>
<!DOCTYPE svg PUBLIC "-//W3C//DTD SVG 1.1//EN" "http://www.w3.org/Graphics/SVG/1.1/DTD/svg11.dtd">
<svg t="1565255739420" class="icon" viewBox="0 0 1024 1024" version="1.1" xmlns="http://www.w3.org/2000/svg" p-id="8047" xmlns:xlink="http://www.w3.org/1999/xlink" width="200" height="200"><defs><style type="text/css"></style></defs><path d="M800.302361 661.297029c-16.275133 0-30.225248 2.325019-44.175361 9.300076l-2.325019-2.325019L465.499619 382.294744c-18.600152-18.600152-46.500381-25.575209-72.07559-18.600153h-2.325019c-9.300076 2.325019-18.600152 6.975057-25.57521 13.950115C186.497334 484.595582 65.596344 740.347677 65.596344 951.92441c0 30.225248-4.650038 44.175362 0 72.07559h553.354532V744.997715l27.900229 27.900228c4.650038 4.650038 9.300076 9.300076 13.950114 11.625095 2.325019 27.900229 25.575209 48.8254 53.475438 48.8254 25.575209 0 46.500381-18.600152 51.150419-41.850342v-11.625096c0-18.600152 13.950114-32.550267 32.550266-32.550266 18.600152 0 32.550267 13.950114 32.550267 32.550266V1024h86.025705V779.873c2.325019-65.100533-51.150419-118.575971-116.250953-118.575971z" p-id="8048"></path><path d="M958.403656 138.167744c-4.650038-16.275133-58.125476-39.525324-74.400609-34.875285l-9.300076 2.325019L823.552552 47.492002C818.902514 40.516944 791.002285 14.941735 770.077114 3.31664c-30.225248-16.275133-255.752095 30.225248-283.652323 76.725628-11.625095 18.600152-18.600152 41.850343-20.925172 53.475438l-18.600152 88.350724-9.300076 2.325019c-16.275133 4.650038-51.150419 51.150419-46.500381 67.425552 4.650038 16.275133 20.925171 27.900229 39.525323 23.250191l67.425553-18.600153c16.275133 86.025705 93.000762 151.126238 183.676504 151.126238 102.300838 0 186.001524-83.700686 186.001524-186.001523 0-20.925171-4.650038-41.850343-11.625095-62.775515l79.050647-20.925171c18.600152-4.650038 30.225248-23.25019 23.25019-39.525324z" p-id="8049" data-spm-anchor-id="a313x.7781069.0.i15" class=""></path></svg>