<?xml version="1.0" standalone="no"?><!DOCTYPE svg PUBLIC "-//W3C//DTD SVG 1.1//EN" "http://www.w3.org/Graphics/SVG/1.1/DTD/svg11.dtd">
<svg t="1565255885873" class="icon" viewBox="0 0 1024 1024" version="1.1" xmlns="http://www.w3.org/2000/svg" p-id="14450" xmlns:xlink="http://www.w3.org/1999/xlink" width="200" height="200"><defs><style type="text/css"></style></defs><path d="M512 437.9c247.4 0 448-69.7 448-155.7S759.4 126.6 512 126.6 64 196.3 64 282.2s200.6 155.7 448 155.7z m380.4-8.1c-99 45.1-242.7 66.5-380.4 66.5-137.8 0-281.4-21.4-380.4-66.5C88.8 453.7 64 481.8 64 512c0 86 200.6 155.7 448 155.7S960 598 960 512c0-30.2-24.8-58.3-67.6-82.2z m0 229.8c-99 45.1-242.7 66.5-380.4 66.5-137.8 0-281.4-21.4-380.4-66.5-42.8 23.9-67.6 52-67.6 82.2 0 86 200.6 155.7 448 155.7s448-69.7 448-155.7c0-30.2-24.8-58.4-67.6-82.2z" p-id="14451"></path></svg>