<?xml version="1.0" standalone="no"?><!DOCTYPE svg PUBLIC "-//W3C//DTD SVG 1.1//EN" "http://www.w3.org/Graphics/SVG/1.1/DTD/svg11.dtd"><svg t="1565156431766" class="icon" viewBox="0 0 1024 1024" version="1.1" xmlns="http://www.w3.org/2000/svg" p-id="30199" xmlns:xlink="http://www.w3.org/1999/xlink" width="200" height="200"><defs><style type="text/css"></style></defs><path d="M0 512v512h1024V0H0v512z m541.866667-353.066667c100.266667 51.2 137.6 158.933333 88.533333 254.933334-36.266667 70.4-99.2 107.733333-187.733333 108.8-56.533333 0-142.933333 41.6-179.2 85.333333-45.866667 53.333333-62.933333 93.866667-68.266667 162.133333l-6.4 61.866667h153.6c142.933333 0 154.666667 1.066667 167.466667 21.333333 12.8 21.333333 11.733333 21.333333-176 19.2l-189.866667-3.2-3.2-56.533333c-7.466667-120.533333 53.333333-235.733333 155.733333-296.533333l55.466667-33.066667-22.4-20.266667c-35.2-32-54.4-78.933333-54.4-132.266666 0-139.733333 145.066667-233.6 266.666667-171.733334zM656 522.666667c3.2 5.333333 18.133333 10.666667 32 10.666666s28.8-5.333333 32-10.666666c21.333333-34.133333 103.466667 17.066667 99.2 60.8-2.133333 21.333333 4.266667 32 28.8 45.866666 21.333333 11.733333 33.066667 27.733333 35.2 46.933334 5.333333 40.533333-6.4 81.066667-22.4 81.066666-26.666667 0-43.733333 21.333333-44.8 54.4 0 28.8-7.466667 39.466667-36.266667 55.466667-33.066667 20.266667-37.333333 20.266667-66.133333 3.2-27.733333-17.066667-32-17.066667-57.6 0-24.533333 16-28.8 16-60.8-3.2-26.666667-14.933333-36.266667-29.866667-40.533333-56.533333-4.266667-27.733333-13.866667-40.533333-35.2-51.2-27.733333-12.8-29.866667-19.2-26.666667-64 3.2-42.666667 7.466667-52.266667 33.066667-64 23.466667-10.666667 28.8-21.333333 28.8-50.133334s6.4-39.466667 29.866666-52.266666c34.133333-19.2 61.866667-21.333333 71.466667-6.4z" p-id="30200" fill="#fe9254"></path><path d="M395.733333 210.133333c-44.8 22.4-81.066667 94.933333-70.4 142.933334 17.066667 78.933333 105.6 131.2 179.2 106.666666 59.733333-20.266667 92.8-66.133333 92.8-130.133333 0-44.8-5.333333-58.666667-35.2-90.666667-42.666667-46.933333-108.8-58.666667-166.4-28.8zM611.2 562.133333c-7.466667 2.133333-13.866667 18.133333-13.866667 35.2 0 20.266667-10.666667 38.4-32 56.533334-30.933333 25.6-43.733333 71.466667-21.333333 71.466666 21.333333 0 53.333333 43.733333 53.333333 73.6 0 38.4 18.133333 45.866667 56.533334 23.466667 27.733333-16 32-16 62.933333 2.133333 37.333333 21.333333 53.333333 13.866667 57.6-30.933333 3.2-32 32-68.266667 54.4-68.266667 23.466667 0 17.066667-51.2-7.466667-58.666666-25.6-8.533333-55.466667-61.866667-46.933333-83.2 6.4-19.2-26.666667-34.133333-42.666667-18.133334-13.866667 13.866667-77.866667 13.866667-86.4 0-7.466667-11.733333-13.866667-11.733333-34.133333-3.2z m118.4 78.933334c32 25.6 36.266667 67.2 10.666667 103.466666-24.533333 35.2-84.266667 28.8-114.133334-10.666666-19.2-25.6-20.266667-32-7.466666-61.866667 12.8-30.933333 39.466667-51.2 70.4-52.266667 6.4-1.066667 24.533333 8.533333 40.533333 21.333334z" p-id="30201" fill="#fe9254"></path><path d="M661.333333 676.266667c-19.2 23.466667-5.333333 49.066667 26.666667 49.066666 24.533333 0 27.733333-4.266667 24.533333-28.8-3.2-34.133333-30.933333-43.733333-51.2-20.266666z" p-id="30202" fill="#fe9254"></path></svg>