<?xml version="1.0" standalone="no"?><!DOCTYPE svg PUBLIC "-//W3C//DTD SVG 1.1//EN" "http://www.w3.org/Graphics/SVG/1.1/DTD/svg11.dtd"><svg t="1567076498159" class="icon" viewBox="0 0 1024 1024" version="1.1" xmlns="http://www.w3.org/2000/svg" p-id="3484" xmlns:xlink="http://www.w3.org/1999/xlink" width="200" height="200"><defs><style type="text/css"></style></defs><path d="M928 448c17.6 0 32-14.4 32-32s-14.4-32-32-32h-160V128h160c17.6 0 32-14.4 32-32s-14.4-32-32-32H160C106.88 64 64 106.88 64 160v768c0 17.6 14.4 32 32 32s32-14.4 32-32v-160h256v160c0 17.6 14.4 32 32 32s32-14.4 32-32v-160h256v160c0 17.6 14.4 32 32 32s32-14.4 32-32v-160h160c17.6 0 32-14.4 32-32s-14.4-32-32-32h-160v-256h160z m-544 256H128v-256h256v256z m0-320H128V160c0-17.6 14.4-32 32-32h224v256z m320 320h-256v-256h256v256z m0-320h-256V128h256v256z" p-id="3485"></path></svg>