<?xml version="1.0" standalone="no"?>
<!DOCTYPE svg PUBLIC "-//W3C//DTD SVG 1.1//EN" "http://www.w3.org/Graphics/SVG/1.1/DTD/svg11.dtd">
<svg t="1565255629978" class="icon" viewBox="0 0 1128 1024" version="1.1" xmlns="http://www.w3.org/2000/svg" p-id="1971" xmlns:xlink="http://www.w3.org/1999/xlink" width="220.3125" height="200"><defs><style type="text/css"></style></defs><path d="M454.334471 527.726962c143.290102-3.494881 258.62116-118.825939 255.12628-265.610921C709.460751 118.825939 597.624573 0 454.334471 0 311.044369 3.494881 195.713311 118.825939 199.208191 262.116041c-3.494881 143.290102 111.836177 262.116041 255.12628 265.610921zM513.74744 803.822526c0-94.361775 10.484642-178.238908 80.382253-230.662116 10.484642-10.484642 20.969283-13.979522-20.969283-13.979523H335.508532c-188.723549 3.494881-335.508532 157.269625-335.508532 345.993174 0 66.40273 52.423208 118.825939 115.331058 118.825939h541.706485c-66.40273-52.423208-143.290102-132.805461-143.290103-220.177474z" p-id="1972"></path><path d="M1114.866894 754.894198c13.979522-52.423208 10.484642-101.351536-17.474403-136.300341-27.959044-38.443686-69.897611-59.412969-115.331058-59.41297-45.433447 0-87.372014 20.969283-122.320819 62.90785-34.948805-38.443686-76.887372-62.90785-122.320819-62.90785-52.423208 0-104.846416 27.959044-125.815699 76.887372 3.494881 10.484642 24.464164 20.969283 41.938566 31.453925 17.474403-45.433447 52.423208-55.918089 83.877133-55.918088 45.433447 0 94.361775 38.443686 122.320819 94.361774 27.959044-59.412969 76.887372-94.361775 122.320819-94.361774 31.453925 0 59.412969 13.979522 73.392492 34.948805 17.474403 27.959044 24.464164 62.90785 3.49488 104.846416 20.969283 0 38.443686 3.494881 55.918089 3.494881z" p-id="1973"></path><path d="M1128.846416 779.358362c-20.969283-3.494881-125.8157-13.979522-150.279863 45.433447 0-10.484642 0-20.969283 6.989761-31.453925-69.897611 38.443686-76.887372 118.825939-118.825939 174.744027-10.484642-66.40273-48.928328-136.300341-76.887372-174.744027-20.969283-27.959044-45.433447-55.918089-62.907849-83.877133 0 10.484642-3.494881 24.464164-3.494881 38.443686-27.959044-41.938567-157.269625-66.40273-139.795222-122.320819-24.464164 38.443686-13.979522 143.290102 13.979522 185.228669 41.938567 62.90785 122.320819 80.382253 178.238908 125.815699 27.959044 20.969283 59.412969 48.928328 83.877133 87.372014 41.938567-62.90785 83.877133-90.866894 122.320819-115.331058 24.464164-17.474403 45.433447-34.948805 66.402731-55.918089 27.959044-27.959044 38.443686-69.897611 80.382252-73.392491z" p-id="1974"></path></svg>